<?xml version="1.0" encoding="utf-8"?>
<!-- Generator: Adobe Illustrator 22.0.1, SVG Export Plug-In . SVG Version: 6.00 Build 0)  -->
<svg version="1.1" id="图层_1" xmlns="http://www.w3.org/2000/svg" xmlns:xlink="http://www.w3.org/1999/xlink" x="0px" y="0px"
	 viewBox="0 0 372.5 60" style="enable-background:new 0 0 372.5 60;" xml:space="preserve">
<style type="text/css">
	.st0{fill:#4C4948;}
	.st1{fill:url(#SVGID_1_);}
	.st2{fill:url(#SVGID_2_);}
	.st3{fill:url(#SVGID_3_);}
	.st4{fill:url(#SVGID_4_);}
</style>
<g>
	<g>
		<g>
			<path class="st0" d="M182.2,31.2h14.7v-7.6h-14.7V31.2z M186.9,25.7h5.4v3.4h-5.4V25.7z"/>
			<rect x="182.2" y="16.3" class="st0" width="14.7" height="2.1"/>
			<polygon class="st0" points="192.6,12.8 191.9,12.8 186.8,12.8 186.4,12.8 181.8,12.8 182.3,11.1 177.5,11.1 174.9,20.2 
				176.2,20.2 176.2,31.2 180.9,31.2 180.9,19 180.1,19 181.7,13.1 181.7,14.9 197.5,14.9 197.5,12.8 			"/>
			<rect x="182.2" y="19.9" class="st0" width="14.7" height="2.1"/>
		</g>
		<rect x="186.8" y="11" class="st0" width="5.4" height="2.2"/>
		<rect x="206.5" y="11" class="st0" width="5.4" height="2.2"/>
		<g>
			<path class="st0" d="M221.6,12.4h-8.3h-1.5h-5.3H206h-4.4V24h20V12.4z M216.9,21.9h-10.4v-1.2h10.4V21.9z M216.9,18.8h-10.4v-1.2
				h10.4V18.8z M216.9,15.7h-10.4v-1.2h10.4V15.7z"/>
			<polygon class="st0" points="211.1,24.9 206.6,24.9 206.6,31.2 217.6,31.2 217.1,29.1 211.1,29.1 			"/>
			<polygon class="st0" points="221.8,24.9 217.3,24.9 218.7,31.2 223.1,31.2 			"/>
			<polygon class="st0" points="200.4,31.2 204.8,31.2 206.1,24.9 201.7,24.9 			"/>
			<polygon class="st0" points="212.6,28.2 217,28.2 216,24.8 211.8,24.8 			"/>
		</g>
		<g>
			<g>
				<g>
					<path class="st0" d="M75.6,44.2c0,0.4,0.1,0.7,0.3,0.9c0.3,0.5,0.9,0.7,1.7,0.7c0.4,0,0.7,0,1-0.1c0.6-0.2,0.9-0.5,0.9-1
						c0-0.4-0.1-0.6-0.4-0.8c-0.2-0.2-0.6-0.3-1.2-0.4l-1-0.2c-0.6-0.1-1.1-0.3-1.4-0.4c-0.5-0.3-0.7-0.7-0.7-1.3
						c0-0.6,0.2-1.1,0.7-1.5c0.5-0.4,1.1-0.6,1.9-0.6c0.8,0,1.4,0.2,1.9,0.5c0.5,0.3,0.8,0.9,0.8,1.6h-0.9c0-0.4-0.2-0.6-0.3-0.8
						c-0.3-0.4-0.8-0.5-1.5-0.5c-0.6,0-1,0.1-1.2,0.3c-0.2,0.2-0.4,0.5-0.4,0.8c0,0.3,0.1,0.6,0.4,0.7c0.2,0.1,0.6,0.2,1.3,0.4
						l1,0.2c0.5,0.1,0.9,0.2,1.1,0.4c0.5,0.3,0.7,0.8,0.7,1.4c0,0.8-0.3,1.3-0.9,1.6c-0.6,0.3-1.3,0.5-2,0.5c-0.9,0-1.6-0.2-2.1-0.6
						c-0.5-0.4-0.8-1-0.8-1.7H75.6z"/>
					<path class="st0" d="M82,39.6h0.9v2.5c0.2-0.2,0.4-0.4,0.6-0.5c0.3-0.2,0.7-0.3,1.1-0.3c0.8,0,1.3,0.3,1.6,0.8
						c0.2,0.3,0.2,0.7,0.2,1.1v3.2h-0.9v-3.1c0-0.4,0-0.6-0.2-0.8c-0.2-0.3-0.5-0.4-0.9-0.4c-0.4,0-0.7,0.1-1,0.4
						c-0.3,0.2-0.5,0.7-0.5,1.3v2.6H82V39.6z"/>
					<path class="st0" d="M90.9,43.4c0.2,0,0.4-0.1,0.4-0.2c0-0.1,0.1-0.2,0.1-0.3c0-0.3-0.1-0.5-0.3-0.6c-0.2-0.1-0.5-0.2-0.9-0.2
						c-0.5,0-0.8,0.1-1,0.4c-0.1,0.1-0.2,0.3-0.2,0.6H88c0-0.6,0.2-1,0.7-1.3c0.4-0.2,0.9-0.4,1.5-0.4c0.6,0,1.2,0.1,1.6,0.3
						c0.4,0.2,0.6,0.6,0.6,1v2.9c0,0.1,0,0.2,0.1,0.2c0,0.1,0.1,0.1,0.2,0.1c0,0,0.1,0,0.1,0c0.1,0,0.1,0,0.2,0v0.6
						c-0.1,0-0.3,0.1-0.3,0.1c-0.1,0-0.2,0-0.3,0c-0.3,0-0.5-0.1-0.7-0.3c-0.1-0.1-0.1-0.3-0.2-0.5c-0.2,0.2-0.5,0.4-0.8,0.6
						c-0.3,0.2-0.7,0.2-1.2,0.2c-0.5,0-0.9-0.1-1.2-0.4c-0.3-0.3-0.5-0.6-0.5-1c0-0.5,0.2-0.8,0.5-1.1c0.3-0.3,0.7-0.4,1.2-0.5
						L90.9,43.4z M88.9,45.7c0.2,0.1,0.4,0.2,0.7,0.2c0.3,0,0.6-0.1,0.9-0.2c0.5-0.2,0.8-0.6,0.8-1.1v-0.7c-0.1,0.1-0.3,0.1-0.4,0.2
						c-0.2,0-0.3,0.1-0.5,0.1l-0.6,0.1c-0.3,0-0.6,0.1-0.7,0.2c-0.3,0.1-0.4,0.4-0.4,0.7C88.6,45.4,88.7,45.6,88.9,45.7z"/>
					<path class="st0" d="M93.9,41.5h0.9v0.7c0.3-0.3,0.5-0.5,0.8-0.6c0.3-0.1,0.6-0.2,1-0.2c0.8,0,1.3,0.2,1.6,0.7
						c0.1,0.3,0.2,0.7,0.2,1.2v3.2h-0.9v-3.1c0-0.3,0-0.5-0.1-0.7c-0.2-0.3-0.5-0.5-0.9-0.5c-0.2,0-0.4,0-0.5,0.1
						c-0.3,0.1-0.5,0.2-0.7,0.4c-0.2,0.2-0.3,0.3-0.3,0.5c0,0.2-0.1,0.4-0.1,0.7v2.6h-0.9V41.5z"/>
					<path class="st0" d="M102.9,41.7c0.2,0.1,0.3,0.3,0.5,0.5v-0.6h0.8V46c0,0.6-0.1,1.1-0.3,1.5c-0.4,0.7-1.1,1-2.1,1
						c-0.6,0-1.1-0.1-1.5-0.4c-0.4-0.2-0.6-0.6-0.7-1.1h0.9c0,0.2,0.1,0.4,0.3,0.5c0.2,0.2,0.5,0.3,1,0.3c0.7,0,1.2-0.2,1.4-0.7
						c0.1-0.3,0.2-0.7,0.2-1.4c-0.2,0.3-0.4,0.4-0.7,0.6c-0.3,0.1-0.6,0.2-1,0.2c-0.6,0-1.1-0.2-1.5-0.6c-0.4-0.4-0.7-1-0.7-1.9
						c0-0.8,0.2-1.5,0.7-1.9c0.4-0.5,1-0.7,1.6-0.7C102.3,41.4,102.6,41.5,102.9,41.7z M103.1,42.6c-0.3-0.3-0.6-0.4-1.1-0.4
						c-0.6,0-1.1,0.3-1.3,0.8c-0.1,0.3-0.2,0.7-0.2,1.2c0,0.6,0.1,1,0.4,1.3c0.2,0.3,0.6,0.4,1,0.4c0.7,0,1.1-0.3,1.4-0.8
						c0.1-0.3,0.2-0.7,0.2-1.1C103.5,43.3,103.3,42.9,103.1,42.6z"/>
					<path class="st0" d="M105.9,39.6h0.9v2.5c0.2-0.2,0.4-0.4,0.6-0.5c0.3-0.2,0.7-0.3,1.1-0.3c0.8,0,1.3,0.3,1.6,0.8
						c0.2,0.3,0.2,0.7,0.2,1.1v3.2h-0.9v-3.1c0-0.4-0.1-0.6-0.2-0.8c-0.2-0.3-0.5-0.4-0.9-0.4c-0.4,0-0.7,0.1-1,0.4
						c-0.3,0.2-0.5,0.7-0.5,1.3v2.6h-0.9V39.6z"/>
					<path class="st0" d="M114.8,43.4c0.2,0,0.3-0.1,0.4-0.2c0-0.1,0.1-0.2,0.1-0.3c0-0.3-0.1-0.5-0.3-0.6c-0.2-0.1-0.5-0.2-1-0.2
						c-0.5,0-0.8,0.1-1,0.4c-0.1,0.1-0.2,0.3-0.2,0.6h-0.9c0-0.6,0.2-1,0.7-1.3c0.4-0.2,0.9-0.4,1.5-0.4c0.6,0,1.2,0.1,1.6,0.3
						c0.4,0.2,0.6,0.6,0.6,1v2.9c0,0.1,0,0.2,0.1,0.2c0,0.1,0.1,0.1,0.2,0.1c0,0,0.1,0,0.1,0c0.1,0,0.1,0,0.2,0v0.6
						c-0.1,0-0.3,0.1-0.3,0.1c-0.1,0-0.2,0-0.3,0c-0.3,0-0.5-0.1-0.7-0.3c-0.1-0.1-0.1-0.3-0.2-0.5c-0.2,0.2-0.5,0.4-0.8,0.6
						c-0.3,0.2-0.7,0.2-1.2,0.2c-0.5,0-0.9-0.1-1.2-0.4c-0.3-0.3-0.5-0.6-0.5-1c0-0.5,0.2-0.8,0.5-1.1c0.3-0.3,0.7-0.4,1.2-0.5
						L114.8,43.4z M112.9,45.7c0.2,0.1,0.4,0.2,0.7,0.2c0.3,0,0.6-0.1,0.9-0.2c0.5-0.2,0.8-0.6,0.8-1.1v-0.7
						c-0.1,0.1-0.3,0.1-0.4,0.2c-0.2,0-0.3,0.1-0.5,0.1l-0.6,0.1c-0.3,0-0.6,0.1-0.7,0.2c-0.3,0.1-0.4,0.4-0.4,0.7
						C112.6,45.4,112.7,45.6,112.9,45.7z"/>
					<path class="st0" d="M117.9,39.6h0.9v0.9h-0.9V39.6z M117.9,41.5h0.9v4.9h-0.9V41.5z"/>
					<path class="st0" d="M124.7,39.6v4.2c0,0.5,0.1,0.9,0.3,1.2c0.3,0.5,0.8,0.7,1.5,0.7c0.9,0,1.5-0.3,1.8-0.8
						c0.2-0.3,0.2-0.7,0.2-1.2v-4.2h1v3.8c0,0.8-0.1,1.5-0.4,1.9c-0.5,0.8-1.3,1.2-2.6,1.2c-1.3,0-2.1-0.4-2.6-1.2
						c-0.2-0.5-0.4-1.1-0.4-1.9v-3.8H124.7z"/>
					<path class="st0" d="M131.2,41.5h0.9v0.9c0.1-0.2,0.2-0.4,0.5-0.6c0.3-0.2,0.6-0.4,1-0.4c0,0,0,0,0.1,0c0,0,0.1,0,0.2,0v0.9
						c-0.1,0-0.1,0-0.1,0c0,0-0.1,0-0.2,0c-0.5,0-0.8,0.1-1.1,0.4c-0.2,0.3-0.4,0.6-0.4,0.9v2.8h-0.9V41.5z"/>
					<path class="st0" d="M134.8,39.6h0.9v2.5c0.2-0.2,0.4-0.4,0.7-0.5c0.3-0.1,0.6-0.2,0.9-0.2c0.7,0,1.2,0.2,1.7,0.6
						c0.4,0.4,0.6,1.1,0.6,1.9c0,0.8-0.2,1.4-0.6,2c-0.4,0.5-1,0.8-1.7,0.8c-0.4,0-0.8-0.1-1.1-0.3c-0.2-0.1-0.4-0.3-0.5-0.5v0.6
						h-0.8V39.6z M138.3,45.3c0.2-0.4,0.4-0.8,0.4-1.4c0-0.5-0.1-1-0.4-1.3c-0.2-0.3-0.6-0.5-1.1-0.5c-0.4,0-0.8,0.1-1.1,0.4
						c-0.3,0.3-0.5,0.7-0.5,1.4c0,0.5,0.1,0.8,0.2,1.1c0.2,0.5,0.7,0.8,1.3,0.8C137.7,45.9,138.1,45.7,138.3,45.3z"/>
					<path class="st0" d="M143.8,43.4c0.2,0,0.4-0.1,0.4-0.2c0-0.1,0.1-0.2,0.1-0.3c0-0.3-0.1-0.5-0.3-0.6c-0.2-0.1-0.5-0.2-0.9-0.2
						c-0.5,0-0.8,0.1-1,0.4c-0.1,0.1-0.2,0.3-0.2,0.6h-0.9c0-0.6,0.2-1,0.7-1.3c0.4-0.2,0.9-0.4,1.5-0.4c0.6,0,1.2,0.1,1.6,0.3
						c0.4,0.2,0.6,0.6,0.6,1v2.9c0,0.1,0,0.2,0.1,0.2c0,0.1,0.1,0.1,0.2,0.1c0,0,0.1,0,0.1,0c0.1,0,0.1,0,0.2,0v0.6
						c-0.1,0-0.3,0.1-0.3,0.1c-0.1,0-0.2,0-0.3,0c-0.3,0-0.5-0.1-0.7-0.3c-0.1-0.1-0.1-0.3-0.2-0.5c-0.2,0.2-0.5,0.4-0.8,0.6
						c-0.3,0.2-0.7,0.2-1.2,0.2c-0.5,0-0.9-0.1-1.2-0.4c-0.3-0.3-0.5-0.6-0.5-1c0-0.5,0.2-0.8,0.5-1.1c0.3-0.3,0.7-0.4,1.2-0.5
						L143.8,43.4z M141.9,45.7c0.2,0.1,0.4,0.2,0.7,0.2c0.3,0,0.6-0.1,0.9-0.2c0.5-0.2,0.8-0.6,0.8-1.1v-0.7
						c-0.1,0.1-0.3,0.1-0.4,0.2c-0.2,0-0.3,0.1-0.5,0.1l-0.6,0.1c-0.3,0-0.6,0.1-0.7,0.2c-0.3,0.1-0.4,0.4-0.4,0.7
						C141.6,45.4,141.7,45.6,141.9,45.7z"/>
					<path class="st0" d="M146.9,41.5h0.9v0.7c0.3-0.3,0.5-0.5,0.8-0.6c0.3-0.1,0.6-0.2,1-0.2c0.8,0,1.3,0.2,1.6,0.7
						c0.1,0.3,0.2,0.7,0.2,1.2v3.2h-0.9v-3.1c0-0.3,0-0.5-0.1-0.7c-0.2-0.3-0.5-0.5-0.9-0.5c-0.2,0-0.4,0-0.5,0.1
						c-0.2,0.1-0.5,0.2-0.7,0.4c-0.2,0.2-0.3,0.3-0.3,0.5c0,0.2-0.1,0.4-0.1,0.7v2.6h-0.9V41.5z"/>
					<path class="st0" d="M152.6,43.4h2.5v0.9h-2.5V43.4z"/>
					<path class="st0" d="M160.1,41.8c0.4,0.3,0.6,0.7,0.7,1.4h-0.9c-0.1-0.3-0.2-0.6-0.4-0.8c-0.2-0.2-0.5-0.3-0.9-0.3
						c-0.6,0-1,0.3-1.2,0.8c-0.2,0.3-0.2,0.8-0.2,1.2c0,0.5,0.1,0.9,0.3,1.3c0.2,0.3,0.6,0.5,1.1,0.5c0.4,0,0.7-0.1,0.9-0.3
						c0.2-0.2,0.4-0.5,0.5-0.9h0.9c-0.1,0.7-0.4,1.1-0.8,1.4c-0.4,0.3-0.9,0.5-1.6,0.5c-0.7,0-1.3-0.2-1.7-0.7
						c-0.4-0.5-0.6-1.1-0.6-1.8c0-0.9,0.2-1.5,0.7-2c0.5-0.5,1.1-0.7,1.8-0.7C159.2,41.3,159.7,41.5,160.1,41.8z"/>
					<path class="st0" d="M165.9,42c0.5,0.4,0.7,1,0.7,1.9c0,0.8-0.2,1.5-0.6,2c-0.4,0.5-1.1,0.8-2,0.8c-0.7,0-1.3-0.2-1.8-0.7
						c-0.4-0.5-0.7-1.1-0.7-1.9c0-0.8,0.2-1.5,0.7-2c0.5-0.5,1.1-0.7,1.9-0.7C164.8,41.3,165.4,41.6,165.9,42z M165.3,45.3
						c0.2-0.4,0.3-0.9,0.3-1.4c0-0.5-0.1-0.8-0.2-1.1c-0.3-0.5-0.7-0.7-1.3-0.7c-0.6,0-1,0.2-1.2,0.6c-0.3,0.4-0.4,0.9-0.4,1.4
						c0,0.5,0.1,1,0.4,1.3c0.3,0.4,0.6,0.5,1.2,0.5C164.7,45.9,165.1,45.7,165.3,45.3z"/>
					<path class="st0" d="M167.9,41.5h0.9v0.7c0.3-0.3,0.5-0.5,0.8-0.6c0.3-0.1,0.6-0.2,1-0.2c0.8,0,1.3,0.2,1.6,0.7
						c0.1,0.3,0.2,0.7,0.2,1.2v3.2h-0.9v-3.1c0-0.3,0-0.5-0.1-0.7c-0.2-0.3-0.5-0.5-0.9-0.5c-0.2,0-0.4,0-0.5,0.1
						c-0.2,0.1-0.5,0.2-0.7,0.4c-0.2,0.2-0.3,0.3-0.3,0.5c0,0.2-0.1,0.4-0.1,0.7v2.6h-0.9V41.5z"/>
					<path class="st0" d="M174.5,44.9c0,0.3,0.1,0.5,0.2,0.6c0.2,0.3,0.6,0.4,1.2,0.4c0.3,0,0.6-0.1,0.9-0.2
						c0.3-0.1,0.4-0.3,0.4-0.6c0-0.2-0.1-0.4-0.3-0.5c-0.1-0.1-0.4-0.1-0.8-0.2l-0.7-0.2c-0.5-0.1-0.8-0.2-1-0.4
						c-0.4-0.2-0.6-0.5-0.6-0.9c0-0.5,0.2-0.8,0.6-1.1c0.4-0.3,0.9-0.4,1.5-0.4c0.8,0,1.4,0.2,1.8,0.7c0.2,0.3,0.3,0.6,0.3,0.9h-0.9
						c0-0.2-0.1-0.4-0.2-0.5c-0.2-0.2-0.6-0.3-1.1-0.3c-0.4,0-0.6,0.1-0.8,0.2c-0.2,0.1-0.3,0.3-0.3,0.5c0,0.2,0.1,0.4,0.4,0.5
						c0.1,0.1,0.3,0.1,0.6,0.2l0.6,0.1c0.7,0.1,1.1,0.3,1.3,0.4c0.4,0.2,0.5,0.5,0.5,1c0,0.4-0.2,0.8-0.6,1.1
						c-0.4,0.3-0.9,0.5-1.7,0.5c-0.8,0-1.4-0.2-1.7-0.5c-0.3-0.3-0.5-0.7-0.5-1.2H174.5z"/>
					<path class="st0" d="M179.5,40.1h0.9v1.4h0.9v0.7h-0.9v3.2c0,0.2,0.1,0.3,0.2,0.3c0.1,0,0.2,0.1,0.4,0.1c0,0,0.1,0,0.1,0
						c0.1,0,0.1,0,0.2,0v0.7c-0.1,0-0.2,0-0.3,0.1c-0.1,0-0.2,0-0.4,0c-0.4,0-0.7-0.1-0.9-0.3c-0.2-0.2-0.2-0.5-0.2-0.8v-3.3h-0.7
						v-0.7h0.7V40.1z"/>
					<path class="st0" d="M182.4,41.5h0.9v0.9c0.1-0.2,0.2-0.4,0.5-0.6c0.3-0.2,0.6-0.4,1-0.4c0,0,0,0,0.1,0c0,0,0.1,0,0.2,0v0.9
						c-0.1,0-0.1,0-0.2,0c0,0-0.1,0-0.1,0c-0.5,0-0.8,0.1-1.1,0.4c-0.2,0.3-0.4,0.6-0.4,0.9v2.8h-0.9V41.5z"/>
					<path class="st0" d="M187,41.5v3.3c0,0.3,0,0.5,0.1,0.6c0.2,0.3,0.5,0.4,0.9,0.4c0.6,0,1-0.3,1.3-0.8c0.1-0.3,0.2-0.7,0.2-1.1
						v-2.4h0.9v5h-0.9l0-0.7c-0.1,0.2-0.3,0.3-0.4,0.5c-0.3,0.3-0.8,0.4-1.2,0.4c-0.8,0-1.3-0.2-1.6-0.7c-0.1-0.3-0.2-0.6-0.2-1
						v-3.4H187z"/>
					<path class="st0" d="M195.7,41.8c0.4,0.3,0.6,0.7,0.7,1.4h-0.9c-0.1-0.3-0.2-0.6-0.4-0.8c-0.2-0.2-0.5-0.3-0.9-0.3
						c-0.6,0-1,0.3-1.2,0.8c-0.2,0.3-0.2,0.8-0.2,1.2c0,0.5,0.1,0.9,0.3,1.3c0.2,0.3,0.6,0.5,1.1,0.5c0.4,0,0.7-0.1,0.9-0.3
						c0.2-0.2,0.4-0.5,0.5-0.9h0.9c-0.1,0.7-0.4,1.1-0.8,1.4c-0.4,0.3-0.9,0.5-1.6,0.5c-0.7,0-1.3-0.2-1.7-0.7
						c-0.4-0.5-0.6-1.1-0.6-1.8c0-0.9,0.2-1.5,0.7-2c0.5-0.5,1.1-0.7,1.8-0.7C194.8,41.3,195.3,41.5,195.7,41.8z"/>
					<path class="st0" d="M197.7,40.1h0.9v1.4h0.9v0.7h-0.9v3.2c0,0.2,0.1,0.3,0.2,0.3c0.1,0,0.2,0.1,0.4,0.1c0,0,0.1,0,0.1,0
						c0.1,0,0.1,0,0.2,0v0.7c-0.1,0-0.2,0-0.3,0.1c-0.1,0-0.2,0-0.4,0c-0.4,0-0.7-0.1-0.9-0.3c-0.2-0.2-0.2-0.5-0.2-0.8v-3.3h-0.7
						v-0.7h0.7V40.1z"/>
					<path class="st0" d="M200.6,39.6h0.9v0.9h-0.9V39.6z M200.6,41.5h0.9v4.9h-0.9V41.5z"/>
					<path class="st0" d="M207,42c0.5,0.4,0.7,1,0.7,1.9c0,0.8-0.2,1.5-0.6,2c-0.4,0.5-1.1,0.8-2,0.8c-0.7,0-1.3-0.2-1.8-0.7
						c-0.4-0.5-0.7-1.1-0.7-1.9c0-0.8,0.2-1.5,0.7-2c0.5-0.5,1.1-0.7,1.9-0.7C206,41.3,206.6,41.6,207,42z M206.5,45.3
						c0.2-0.4,0.3-0.9,0.3-1.4c0-0.5-0.1-0.8-0.2-1.1c-0.3-0.5-0.7-0.7-1.3-0.7c-0.6,0-1,0.2-1.2,0.6c-0.3,0.4-0.4,0.9-0.4,1.4
						c0,0.5,0.1,1,0.4,1.3c0.3,0.4,0.6,0.5,1.2,0.5C205.8,45.9,206.2,45.7,206.5,45.3z"/>
					<path class="st0" d="M209.1,41.5h0.9v0.7c0.3-0.3,0.5-0.5,0.8-0.6c0.3-0.1,0.6-0.2,1-0.2c0.8,0,1.3,0.2,1.6,0.7
						c0.1,0.3,0.2,0.7,0.2,1.2v3.2h-0.9v-3.1c0-0.3,0-0.5-0.1-0.7c-0.2-0.3-0.5-0.5-0.9-0.5c-0.2,0-0.4,0-0.5,0.1
						c-0.3,0.1-0.5,0.2-0.7,0.4c-0.2,0.2-0.3,0.3-0.3,0.5c0,0.2-0.1,0.4-0.1,0.7v2.6h-0.9V41.5z"/>
					<path class="st0" d="M218.5,39.6h1v6.8h-1V39.6z"/>
					<path class="st0" d="M221.3,41.5h0.9v0.7c0.3-0.3,0.5-0.5,0.8-0.6c0.3-0.1,0.6-0.2,1-0.2c0.8,0,1.3,0.2,1.6,0.7
						c0.1,0.3,0.2,0.7,0.2,1.2v3.2h-0.9v-3.1c0-0.3,0-0.5-0.1-0.7c-0.2-0.3-0.5-0.5-0.9-0.5c-0.2,0-0.4,0-0.5,0.1
						c-0.2,0.1-0.5,0.2-0.7,0.4c-0.2,0.2-0.3,0.3-0.3,0.5c0,0.2-0.1,0.4-0.1,0.7v2.6h-0.9V41.5z"/>
					<path class="st0" d="M227.7,40c0.2-0.3,0.6-0.4,1.2-0.4c0.1,0,0.1,0,0.2,0c0.1,0,0.1,0,0.2,0v0.8c-0.1,0-0.2,0-0.2,0
						c0,0-0.1,0-0.1,0c-0.3,0-0.4,0.1-0.5,0.2c-0.1,0.1-0.1,0.5-0.1,1h0.9v0.7h-0.9v4.3h-0.9v-4.3h-0.8v-0.7h0.8v-0.8
						C227.5,40.4,227.6,40.1,227.7,40z"/>
					<path class="st0" d="M234.3,42c0.5,0.4,0.7,1,0.7,1.9c0,0.8-0.2,1.5-0.6,2c-0.4,0.5-1.1,0.8-2,0.8c-0.7,0-1.3-0.2-1.8-0.7
						c-0.4-0.5-0.7-1.1-0.7-1.9c0-0.8,0.2-1.5,0.7-2c0.5-0.5,1.1-0.7,1.9-0.7C233.2,41.3,233.8,41.6,234.3,42z M233.7,45.3
						c0.2-0.4,0.3-0.9,0.3-1.4c0-0.5-0.1-0.8-0.2-1.1c-0.3-0.5-0.7-0.7-1.3-0.7c-0.6,0-1,0.2-1.2,0.6c-0.3,0.4-0.4,0.9-0.4,1.4
						c0,0.5,0.1,1,0.4,1.3c0.3,0.4,0.6,0.5,1.2,0.5C233.1,45.9,233.5,45.7,233.7,45.3z"/>
					<path class="st0" d="M236.4,41.5h0.9v0.9c0.1-0.2,0.2-0.4,0.5-0.6c0.3-0.2,0.6-0.4,1-0.4c0,0,0,0,0.1,0c0,0,0.1,0,0.2,0v0.9
						c-0.1,0-0.1,0-0.2,0c0,0-0.1,0-0.1,0c-0.5,0-0.8,0.1-1.1,0.4c-0.2,0.3-0.4,0.6-0.4,0.9v2.8h-0.9V41.5z"/>
					<path class="st0" d="M240,41.5h0.9v0.7c0.2-0.2,0.4-0.4,0.6-0.5c0.3-0.2,0.6-0.3,1-0.3c0.4,0,0.8,0.1,1,0.3
						c0.1,0.1,0.3,0.3,0.4,0.5c0.2-0.3,0.4-0.5,0.7-0.6c0.3-0.1,0.6-0.2,0.9-0.2c0.7,0,1.2,0.2,1.5,0.7c0.1,0.3,0.2,0.6,0.2,1v3.3
						h-0.9V43c0-0.3-0.1-0.6-0.3-0.7c-0.2-0.1-0.4-0.2-0.7-0.2c-0.4,0-0.7,0.1-0.9,0.3c-0.3,0.2-0.4,0.6-0.4,1.1v2.9h-0.9v-3.2
						c0-0.3,0-0.6-0.1-0.7c-0.1-0.2-0.4-0.3-0.8-0.3c-0.3,0-0.7,0.1-0.9,0.4c-0.3,0.2-0.4,0.7-0.4,1.3v2.6H240V41.5z"/>
					<path class="st0" d="M251.8,43.4c0.2,0,0.4-0.1,0.4-0.2c0-0.1,0.1-0.2,0.1-0.3c0-0.3-0.1-0.5-0.3-0.6c-0.2-0.1-0.5-0.2-0.9-0.2
						c-0.5,0-0.8,0.1-1,0.4c-0.1,0.1-0.2,0.3-0.2,0.6h-0.9c0-0.6,0.2-1,0.7-1.3c0.4-0.2,0.9-0.4,1.5-0.4c0.6,0,1.2,0.1,1.6,0.3
						c0.4,0.2,0.6,0.6,0.6,1v2.9c0,0.1,0,0.2,0.1,0.2c0,0.1,0.1,0.1,0.2,0.1c0,0,0.1,0,0.1,0c0.1,0,0.1,0,0.2,0v0.6
						c-0.1,0-0.3,0.1-0.3,0.1c-0.1,0-0.2,0-0.3,0c-0.3,0-0.5-0.1-0.7-0.3c-0.1-0.1-0.1-0.3-0.2-0.5c-0.2,0.2-0.5,0.4-0.8,0.6
						c-0.3,0.2-0.7,0.2-1.2,0.2c-0.5,0-0.9-0.1-1.2-0.4c-0.3-0.3-0.5-0.6-0.5-1c0-0.5,0.2-0.8,0.5-1.1c0.3-0.3,0.7-0.4,1.2-0.5
						L251.8,43.4z M249.9,45.7c0.2,0.1,0.4,0.2,0.7,0.2c0.3,0,0.6-0.1,0.9-0.2c0.5-0.2,0.8-0.6,0.8-1.1v-0.7
						c-0.1,0.1-0.3,0.1-0.4,0.2c-0.2,0-0.3,0.1-0.5,0.1l-0.6,0.1c-0.3,0-0.6,0.1-0.7,0.2c-0.3,0.1-0.4,0.4-0.4,0.7
						C249.6,45.4,249.7,45.6,249.9,45.7z"/>
					<path class="st0" d="M255.1,40.1h0.9v1.4h0.9v0.7H256v3.2c0,0.2,0.1,0.3,0.2,0.3c0.1,0,0.2,0.1,0.4,0.1c0,0,0.1,0,0.1,0
						c0,0,0.1,0,0.2,0v0.7c-0.1,0-0.2,0-0.3,0.1c-0.1,0-0.2,0-0.4,0c-0.4,0-0.7-0.1-0.9-0.3c-0.2-0.2-0.2-0.5-0.2-0.8v-3.3h-0.7
						v-0.7h0.7V40.1z"/>
					<path class="st0" d="M258,39.6h0.9v0.9H258V39.6z M258,41.5h0.9v4.9H258V41.5z"/>
					<path class="st0" d="M264.4,42c0.5,0.4,0.7,1,0.7,1.9c0,0.8-0.2,1.5-0.6,2c-0.4,0.5-1.1,0.8-2,0.8c-0.7,0-1.3-0.2-1.8-0.7
						c-0.4-0.5-0.7-1.1-0.7-1.9c0-0.8,0.2-1.5,0.7-2c0.5-0.5,1.1-0.7,1.9-0.7C263.4,41.3,263.9,41.6,264.4,42z M263.9,45.3
						c0.2-0.4,0.3-0.9,0.3-1.4c0-0.5-0.1-0.8-0.2-1.1c-0.3-0.5-0.7-0.7-1.3-0.7c-0.6,0-1,0.2-1.2,0.6c-0.3,0.4-0.4,0.9-0.4,1.4
						c0,0.5,0.1,1,0.4,1.3c0.3,0.4,0.6,0.5,1.2,0.5C263.2,45.9,263.6,45.7,263.9,45.3z"/>
					<path class="st0" d="M266.5,41.5h0.9v0.7c0.3-0.3,0.5-0.5,0.8-0.6c0.3-0.1,0.6-0.2,1-0.2c0.8,0,1.3,0.2,1.6,0.7
						c0.1,0.3,0.2,0.7,0.2,1.2v3.2H270v-3.1c0-0.3,0-0.5-0.1-0.7c-0.2-0.3-0.5-0.5-0.9-0.5c-0.2,0-0.4,0-0.5,0.1
						c-0.3,0.1-0.5,0.2-0.7,0.4c-0.2,0.2-0.3,0.3-0.3,0.5c0,0.2-0.1,0.4-0.1,0.7v2.6h-0.9V41.5z"/>
					<path class="st0" d="M280.9,39.6v0.8h-2.5v6h-1v-6h-2.5v-0.8H280.9z"/>
					<path class="st0" d="M284.1,41.6c0.4,0.2,0.6,0.4,0.8,0.6c0.2,0.2,0.3,0.5,0.4,0.9c0.1,0.2,0.1,0.6,0.1,1.1h-4
						c0,0.5,0.1,0.9,0.4,1.2c0.2,0.3,0.6,0.5,1.1,0.5c0.5,0,0.9-0.1,1.1-0.4c0.2-0.2,0.3-0.4,0.3-0.6h0.9c0,0.2-0.1,0.4-0.2,0.6
						c-0.1,0.2-0.3,0.4-0.4,0.6c-0.3,0.2-0.6,0.4-1,0.5c-0.2,0-0.5,0.1-0.7,0.1c-0.7,0-1.2-0.2-1.7-0.7c-0.5-0.4-0.7-1.1-0.7-1.9
						c0-0.8,0.2-1.4,0.7-1.9c0.5-0.5,1.1-0.7,1.8-0.7C283.4,41.4,283.8,41.5,284.1,41.6z M284.5,43.6c0-0.4-0.1-0.6-0.3-0.9
						c-0.2-0.4-0.7-0.6-1.2-0.6c-0.4,0-0.8,0.1-1,0.4c-0.3,0.3-0.4,0.6-0.4,1.1H284.5z"/>
					<path class="st0" d="M290.4,41.8c0.4,0.3,0.6,0.7,0.7,1.4h-0.9c-0.1-0.3-0.2-0.6-0.4-0.8c-0.2-0.2-0.5-0.3-0.9-0.3
						c-0.6,0-1,0.3-1.2,0.8c-0.2,0.3-0.2,0.8-0.2,1.2c0,0.5,0.1,0.9,0.3,1.3c0.2,0.3,0.6,0.5,1.1,0.5c0.4,0,0.7-0.1,0.9-0.3
						c0.2-0.2,0.4-0.5,0.5-0.9h0.9c-0.1,0.7-0.4,1.1-0.8,1.4c-0.4,0.3-0.9,0.5-1.6,0.5c-0.7,0-1.3-0.2-1.7-0.7
						c-0.4-0.5-0.6-1.1-0.6-1.8c0-0.9,0.2-1.5,0.7-2c0.5-0.5,1.1-0.7,1.8-0.7C289.5,41.3,290,41.5,290.4,41.8z"/>
					<path class="st0" d="M292.2,39.6h0.9v2.5c0.2-0.2,0.4-0.4,0.6-0.5c0.3-0.2,0.7-0.3,1.1-0.3c0.8,0,1.3,0.3,1.6,0.8
						c0.2,0.3,0.2,0.7,0.2,1.1v3.2h-0.9v-3.1c0-0.4-0.1-0.6-0.2-0.8c-0.2-0.3-0.5-0.4-0.9-0.4c-0.4,0-0.7,0.1-1,0.4
						c-0.3,0.2-0.5,0.7-0.5,1.3v2.6h-0.9V39.6z"/>
					<path class="st0" d="M298.2,41.5h0.9v0.7c0.3-0.3,0.5-0.5,0.8-0.6c0.3-0.1,0.6-0.2,1-0.2c0.8,0,1.3,0.2,1.6,0.7
						c0.1,0.3,0.2,0.7,0.2,1.2v3.2h-0.9v-3.1c0-0.3,0-0.5-0.1-0.7c-0.2-0.3-0.5-0.5-0.9-0.5c-0.2,0-0.4,0-0.5,0.1
						c-0.2,0.1-0.5,0.2-0.7,0.4c-0.2,0.2-0.3,0.3-0.3,0.5c0,0.2-0.1,0.4-0.1,0.7v2.6h-0.9V41.5z"/>
					<path class="st0" d="M308.1,42c0.5,0.4,0.7,1,0.7,1.9c0,0.8-0.2,1.5-0.6,2c-0.4,0.5-1.1,0.8-2,0.8c-0.7,0-1.3-0.2-1.8-0.7
						c-0.4-0.5-0.7-1.1-0.7-1.9c0-0.8,0.2-1.5,0.7-2c0.5-0.5,1.1-0.7,1.9-0.7C307,41.3,307.6,41.6,308.1,42z M307.5,45.3
						c0.2-0.4,0.3-0.9,0.3-1.4c0-0.5-0.1-0.8-0.2-1.1c-0.3-0.5-0.7-0.7-1.3-0.7c-0.6,0-1,0.2-1.2,0.6c-0.3,0.4-0.4,0.9-0.4,1.4
						c0,0.5,0.1,1,0.4,1.3c0.3,0.4,0.6,0.5,1.2,0.5C306.9,45.9,307.3,45.7,307.5,45.3z"/>
					<path class="st0" d="M310.2,39.6h0.9v6.8h-0.9V39.6z"/>
					<path class="st0" d="M316.6,42c0.5,0.4,0.7,1,0.7,1.9c0,0.8-0.2,1.5-0.6,2c-0.4,0.5-1.1,0.8-2,0.8c-0.7,0-1.3-0.2-1.8-0.7
						c-0.4-0.5-0.7-1.1-0.7-1.9c0-0.8,0.2-1.5,0.7-2c0.5-0.5,1.1-0.7,1.9-0.7C315.5,41.3,316.1,41.6,316.6,42z M316,45.3
						c0.2-0.4,0.3-0.9,0.3-1.4c0-0.5-0.1-0.8-0.2-1.1c-0.3-0.5-0.7-0.7-1.3-0.7c-0.6,0-1,0.2-1.2,0.6c-0.3,0.4-0.4,0.9-0.4,1.4
						c0,0.5,0.1,1,0.4,1.3c0.3,0.4,0.6,0.5,1.2,0.5C315.4,45.9,315.8,45.7,316,45.3z"/>
					<path class="st0" d="M321.7,41.7c0.2,0.1,0.3,0.3,0.5,0.5v-0.6h0.8V46c0,0.6-0.1,1.1-0.3,1.5c-0.4,0.7-1.1,1-2.1,1
						c-0.6,0-1.1-0.1-1.5-0.4c-0.4-0.2-0.6-0.6-0.7-1.1h0.9c0,0.2,0.1,0.4,0.3,0.5c0.2,0.2,0.5,0.3,1,0.3c0.7,0,1.2-0.2,1.4-0.7
						c0.1-0.3,0.2-0.7,0.2-1.4c-0.2,0.3-0.4,0.4-0.7,0.6c-0.3,0.1-0.6,0.2-1,0.2c-0.6,0-1.1-0.2-1.5-0.6c-0.4-0.4-0.7-1-0.7-1.9
						c0-0.8,0.2-1.5,0.7-1.9c0.4-0.5,1-0.7,1.6-0.7C321,41.4,321.4,41.5,321.7,41.7z M321.8,42.6c-0.3-0.3-0.6-0.4-1.1-0.4
						c-0.6,0-1.1,0.3-1.3,0.8c-0.1,0.3-0.2,0.7-0.2,1.2c0,0.6,0.1,1,0.4,1.3c0.2,0.3,0.6,0.4,1,0.4c0.7,0,1.1-0.3,1.4-0.8
						c0.1-0.3,0.2-0.7,0.2-1.1C322.2,43.3,322.1,42.9,321.8,42.6z"/>
					<path class="st0" d="M328,41.5h1c-0.1,0.3-0.4,1-0.9,2.2c-0.3,0.9-0.6,1.5-0.8,2.1c-0.5,1.3-0.9,2-1.1,2.3
						c-0.2,0.3-0.6,0.4-1.1,0.4c-0.1,0-0.2,0-0.3,0c-0.1,0-0.2,0-0.3-0.1v-0.8c0.2,0,0.3,0.1,0.3,0.1c0.1,0,0.1,0,0.2,0
						c0.2,0,0.3,0,0.4-0.1c0.1,0,0.1-0.1,0.2-0.2c0,0,0.1-0.2,0.2-0.4c0.1-0.2,0.2-0.4,0.2-0.5l-2-5.1h1l1.5,4L328,41.5z"/>
					<path class="st0" d="M338.5,40.1c0.5,0.5,0.8,1,0.9,1.5h-1c-0.1-0.4-0.3-0.8-0.7-1c-0.3-0.3-0.8-0.4-1.4-0.4
						c-0.7,0-1.3,0.2-1.7,0.7c-0.4,0.5-0.7,1.2-0.7,2.2c0,0.8,0.2,1.4,0.6,1.9c0.4,0.5,1,0.7,1.8,0.7c0.7,0,1.3-0.3,1.7-0.8
						c0.2-0.3,0.4-0.6,0.5-1.1h1c-0.1,0.7-0.4,1.3-0.9,1.8c-0.6,0.6-1.4,0.9-2.4,0.9c-0.9,0-1.6-0.2-2.2-0.7
						c-0.8-0.6-1.1-1.6-1.1-2.9c0-1,0.3-1.8,0.9-2.5c0.6-0.7,1.5-1,2.6-1C337.3,39.5,338,39.7,338.5,40.1z"/>
					<path class="st0" d="M344.8,42c0.5,0.4,0.7,1,0.7,1.9c0,0.8-0.2,1.5-0.6,2c-0.4,0.5-1.1,0.8-2,0.8c-0.7,0-1.3-0.2-1.8-0.7
						c-0.4-0.5-0.7-1.1-0.7-1.9c0-0.8,0.2-1.5,0.7-2c0.5-0.5,1.1-0.7,1.9-0.7C343.7,41.3,344.3,41.6,344.8,42z M344.2,45.3
						c0.2-0.4,0.3-0.9,0.3-1.4c0-0.5-0.1-0.8-0.2-1.1c-0.3-0.5-0.7-0.7-1.3-0.7c-0.6,0-1,0.2-1.2,0.6c-0.2,0.4-0.4,0.9-0.4,1.4
						c0,0.5,0.1,1,0.4,1.3c0.3,0.4,0.6,0.5,1.2,0.5C343.6,45.9,344,45.7,344.2,45.3z"/>
					<path class="st0" d="M347.1,45.4h1.1v1h-1.1V45.4z"/>
					<path class="st0" d="M350.1,47.4c0.2,0,0.4-0.2,0.5-0.5c0-0.1,0.1-0.3,0.1-0.4c0,0,0,0,0-0.1c0,0,0,0,0-0.1h-0.6v-1h1.1v0.9
						c0,0.4-0.1,0.7-0.2,1c-0.2,0.3-0.4,0.4-0.8,0.5V47.4z"/>
					<path class="st0" d="M356.3,39.6h1v6h3.7v0.8h-4.8V39.6z"/>
					<path class="st0" d="M362.3,40.1h0.9v1.4h0.9v0.7h-0.9v3.2c0,0.2,0.1,0.3,0.2,0.3c0.1,0,0.2,0.1,0.4,0.1c0,0,0.1,0,0.1,0
						c0.1,0,0.1,0,0.2,0v0.7c-0.1,0-0.2,0-0.3,0.1c-0.1,0-0.2,0-0.4,0c-0.4,0-0.7-0.1-0.9-0.3c-0.2-0.2-0.2-0.5-0.2-0.8v-3.3h-0.7
						v-0.7h0.7V40.1z"/>
					<path class="st0" d="M368.2,41.6c0.2,0.1,0.3,0.3,0.6,0.5v-2.5h0.9v6.8h-0.8v-0.7c-0.2,0.3-0.5,0.5-0.8,0.7
						c-0.3,0.1-0.6,0.2-1,0.2c-0.6,0-1.1-0.2-1.6-0.7c-0.4-0.5-0.7-1.1-0.7-1.9c0-0.7,0.2-1.3,0.6-1.9c0.4-0.5,1-0.8,1.7-0.8
						C367.6,41.4,367.9,41.5,368.2,41.6z M366.2,45.4c0.2,0.4,0.6,0.5,1.2,0.5c0.4,0,0.8-0.2,1-0.5c0.3-0.3,0.4-0.8,0.4-1.4
						c0-0.6-0.1-1.1-0.4-1.4c-0.3-0.3-0.6-0.5-1-0.5c-0.5,0-0.8,0.2-1.1,0.5c-0.3,0.3-0.4,0.8-0.4,1.4
						C365.8,44.6,365.9,45,366.2,45.4z"/>
					<path class="st0" d="M371.4,45.4h1.1v1h-1.1V45.4z"/>
				</g>
			</g>
			<g>
				<g>
					<path class="st0" d="M74.6,31.3v-2.4h8.5V11.1h5.1v6.4h8v2.3h-8v9.1H97v2.4H74.6z"/>
					<path class="st0" d="M101,15.2l-1.4-4.1h4.5l1.4,4.1H101z M100.6,20.1l-0.9-4.2h4.3l1,4.2H100.6z M104.4,31.2h-4.5l1.3-10.1
						h4.4L104.4,31.2z M120.9,23.2l-0.1,2.9h1.3v2.1h-1.4l-0.1,2.9h-5.7l-1.1-2.1h2.7l0-0.8h-10.1l0.3-5h-0.7l0.3-2.2h0.6l0.2-4.2
						h-1.6l2.9-5.8h4.8l-0.7,1.4h9.6v2.2h-10.7l-0.7,1.3h10.2l-0.1,5.1h1.2v2.2H120.9z M111.2,23.2l-0.2,2.9h1.3l-0.6-3.5h3.6
						l0.6,3.5h0.7l0.1-2.9H111.2z M111.5,18.1l-0.2,2.9h1.2l-0.5-3.2h3.7l0.5,3.2h0.6l0-2.9H111.5z"/>
					<path class="st0" d="M125.1,31.2v-2.3l1.3-0.5V17.6h-1.2v-2.1h1.2v-4.4h4.2v4.4h1v2.1h-1v9.4l1.1-0.4v2.3L125.1,31.2z
						 M145,22.8l0.9,6.2h1.9l-0.9,2.1H142l-0.3-2l-0.9,1.5H138l1.1-2.1h-2.8l0.3-2v1.8l-1,2.8h-4.5l1.2-3.3V13.5h7.2l-0.3-2.5h4.2
						l0.3,2.5h1.3l-0.2-2.1h2.2l0.6,4.2H144l0.4,2.8l0.5-1h2.8L145,22.8z M139.8,15.7h-3.3v2.9h3.3v8.5l1.2-2.2L139.8,15.7z
						 M137.4,20.7h-0.8v5.7h0.8V20.7z"/>
					<path class="st0" d="M171.7,31.2h-14.5l-1-1l-0.9,1H150l3.3-3.9V27l-3.5-3.9h2.9l0.6,0.7v-2.5h-2.9v-1.9l2.5-5.5h-2.6v-2.1h7.3
						V14l-2.3,5.1h2.3v9.3l0.7,0.7h14.5L171.7,31.2z M171.7,17.3v3.1h-4.9v1.1h4.8v2h-4.8v1.2h4.8v2h-4.8v2.7h-4.4v-2.7h-3.8v-2h3.8
						v-1.2h-3.8v-2h3.8v-1.1h-3.8v-2h3.8v-1h-4.9v-2h4.9v-1h-3.8v-2.1h3.8V11h4.4v1.1h4.9v3.1h0.9v2H171.7z M168.9,14.3h-2v1h2V14.3
						z M168.9,17.3h-2v1h2V17.3z"/>
					<g>
						<polygon class="st0" points="335.9,11.1 330.7,11.1 325.7,21.3 331,21.3 						"/>
						<polygon class="st0" points="349.8,21.3 344.4,11.1 339.2,11.1 344.5,21.3 						"/>
						<polygon class="st0" points="340.3,24.9 342.1,28.9 334.2,28.9 339.6,17.8 334.5,17.8 328,31.1 348.5,31.1 345.2,24.9 						
							"/>
					</g>
					<path class="st0" d="M352.6,17.2v-2.2H367v2.2H352.6z M365.7,31.2l-1.3-2.2h4.1V13.5h-15.9v-2.2h20.6v19.9H365.7z M352.6,28.1
						v-9.5H367v9.5H352.6z M362.3,20.7h-5v5.1h5V20.7z"/>
				</g>
			</g>
			<g>
				<polygon class="st0" points="236.3,19.1 237.5,23.9 241.9,23.9 240.7,19.1 				"/>
				<polygon class="st0" points="225.5,29.9 227.7,29.9 228.1,18.8 226,18.8 				"/>
				<polygon class="st0" points="241.8,17 240.6,11.7 236.1,11.7 237.4,17 				"/>
				<polygon class="st0" points="233.2,18.8 233.7,29.9 235.9,29.9 235.3,18.8 				"/>
				<polygon class="st0" points="246.7,24.1 246.7,11.1 242.3,11.1 242.3,24.8 236.1,25.7 236.1,27.9 242.3,27 242.3,31.2 
					246.7,31.2 246.7,26.3 248.1,26.1 248.1,23.9 				"/>
				<polygon class="st0" points="235.7,15.5 232.7,15.5 232.7,13.2 234.9,13.2 235.7,11 225.9,11 225.9,13.2 228.6,13.2 228.6,15.5 
					225.6,15.5 225.6,17.6 228.6,17.6 228.6,31.2 232.7,31.2 232.7,17.6 235.7,17.6 				"/>
			</g>
			<polygon class="st0" points="298,15.1 298,12.9 285.7,12.9 286.9,10.9 281.5,10.9 280.3,12.9 275.6,12.9 275.6,15.1 279,15.1 
				275.1,21.8 277.5,21.8 277.5,31.3 282.4,31.3 282.4,27.3 291.2,27.3 291.2,25.1 282.4,25.1 282.4,23.3 291.2,23.3 291.2,21.2 
				282.4,21.2 282.4,19.4 292.1,19.4 292.1,29.2 287.7,29.2 288.8,31.3 296.9,31.3 296.9,17.2 283.1,17.2 284.4,15.1 			"/>
			<path class="st0" d="M300.4,31.2h3.8v-2.6h4.7V11.3h-8.6V31.2z M304.2,13.5h1.1v5.4h-1.1V13.5z M304.2,21.2h1.1v5.3h-1.1V21.2z"
				/>
			<g>
				<polygon class="st0" points="258.6,19 257.1,19.7 257.1,16.3 258.5,16.3 258.5,14.1 257.1,14.1 257.1,10.9 252.5,10.9 
					252.5,14.1 250.7,14.1 250.7,16.3 252.5,16.3 252.5,22.2 250.7,23.2 250.7,25.7 252.5,24.8 252.5,29 250.7,29 250.7,31.2 
					257.1,31.2 257.1,22.3 258.6,21.5 				"/>
				<polygon class="st0" points="272.6,21.7 272.6,18.8 268.4,18.8 268.4,15.8 272.5,15.8 272.5,13.7 268.4,13.7 268.4,10.9 
					263.7,10.9 263.7,13.7 259.4,13.7 259.4,15.8 263.7,15.8 263.7,18.8 259.4,18.8 259.4,21 267.7,21 265.8,23.1 264.9,22.3 
					259.5,22.3 263.1,25.9 258.1,31.2 263.5,31.2 265.8,28.8 268.1,31.2 273.6,31.2 268.5,25.9 				"/>
				<path class="st0" d="M323.9,23.3h-4.2l-0.6,1.2l-1.1-2h-3.8v-0.7h8.5V11.3h-12.8v19.9h5.5l1.1-2.2h-2.3v-5.4l4,7.5h4.5l-1.5-2.7
					L323.9,23.3z M314.2,13.5h4.3v2h-4.3V13.5z M314.2,17.6h4.3v2h-4.3V17.6z"/>
			</g>
		</g>
	</g>
	<g>
		<linearGradient id="SVGID_1_" gradientUnits="userSpaceOnUse" x1="1.882" y1="9.1391" x2="53.2233" y2="9.1391">
			<stop  offset="0" style="stop-color:#002B71"/>
			<stop  offset="0.3156" style="stop-color:#004389"/>
			<stop  offset="0.5235" style="stop-color:#00559B"/>
			<stop  offset="0.6392" style="stop-color:#0070B7"/>
			<stop  offset="0.7799" style="stop-color:#008AD2"/>
			<stop  offset="0.9048" style="stop-color:#0099E2"/>
			<stop  offset="1" style="stop-color:#009FE8"/>
		</linearGradient>
		<path class="st1" d="M52,9.1L35.6,0.6c-2.5-1.4-5.8-1.4-8.3-0.1L2.1,13.7l-0.3,0.2c-0.2,0.1-0.4,0.3-0.5,0.5c-0.2,0.4,0,1,0.4,1.3
			c2,1,6,3.1,6,3.1c0.2-0.1,0.3-0.1,0.4-0.2L27.5,8.1c2.8-1.6,5.4-1.3,7.9,0l10.2,5.6c1.3,0.8,2.8,0.9,4.2,0.2l2.2-1
			C53.4,12,53.4,9.9,52,9.1z"/>
		<linearGradient id="SVGID_2_" gradientUnits="userSpaceOnUse" x1="11.5768" y1="38.9481" x2="49.7627" y2="38.9481">
			<stop  offset="0" style="stop-color:#009FE8"/>
			<stop  offset="0.1178" style="stop-color:#009BE4"/>
			<stop  offset="0.2418" style="stop-color:#008FD7"/>
			<stop  offset="0.3686" style="stop-color:#007BC2"/>
			<stop  offset="0.4966" style="stop-color:#005EA5"/>
			<stop  offset="0.5333" style="stop-color:#00559B"/>
			<stop  offset="0.7186" style="stop-color:#004389"/>
			<stop  offset="1" style="stop-color:#002B71"/>
		</linearGradient>
		<path class="st2" d="M48.2,33.8L36.6,40c-3.3,1.8-7.2,1.8-10.5,0l-13-7.3c-0.6-0.3-1.4,0.2-1.4,1v1.3c0,0.6,0.3,1.2,0.8,1.5
			C17.5,39,26.1,44,26.1,44c3.3,1.8,7.1,1.8,10.4,0l12.3-6.6c0.5-0.3,0.9-0.9,0.9-1.6v-1.1C49.7,34,48.9,33.4,48.2,33.8z"/>
		<linearGradient id="SVGID_3_" gradientUnits="userSpaceOnUse" x1="59.0842" y1="36.6914" x2="0.2915" y2="36.6914">
			<stop  offset="0" style="stop-color:#002B71"/>
			<stop  offset="0.2814" style="stop-color:#004389"/>
			<stop  offset="0.4667" style="stop-color:#00559B"/>
			<stop  offset="0.5034" style="stop-color:#005EA5"/>
			<stop  offset="0.6314" style="stop-color:#007BC2"/>
			<stop  offset="0.7582" style="stop-color:#008FD7"/>
			<stop  offset="0.8822" style="stop-color:#009BE4"/>
			<stop  offset="1" style="stop-color:#009FE8"/>
		</linearGradient>
		<path class="st3" d="M61.4,19.3v-3c0-2.1-2.3-3.5-4.2-2.4L38.5,24.5c-4.5,2.5-9.8,2.6-14.3,0.1l-13.8-7.4l-6.5-3.5
			c-0.6-0.3-1.3-0.3-1.8,0l-0.3,0.2c-0.2,0.1-0.4,0.3-0.5,0.5c-0.3,0.3-0.4,0.8-0.4,1.3v1.8c0,1.7,0.9,3.2,2.4,4l20.1,10.8
			c5.1,2.8,11,2.7,16.1-0.1l15.5-9v0v17.5l-16.4,9.5c-4.5,2.5-9.8,2.6-14.3,0.1l-20-11.7c-1.4-0.7-3.1,0.3-3.1,1.9v1.8
			c0,1.7,0.9,3.2,2.4,4l19.7,11.6c5.1,2.8,11,2.7,16.1-0.1l15.5-9l0,0l2.8-1.5c2.3-1.3,3.7-3.9,3.7-6.7V19.3L61.4,19.3z"/>
		<linearGradient id="SVGID_4_" gradientUnits="userSpaceOnUse" x1="19.9259" y1="17.0612" x2="42.6199" y2="17.0612">
			<stop  offset="0" style="stop-color:#002B71"/>
			<stop  offset="0.2814" style="stop-color:#004389"/>
			<stop  offset="0.4667" style="stop-color:#00559B"/>
			<stop  offset="0.5034" style="stop-color:#005EA5"/>
			<stop  offset="0.6314" style="stop-color:#007BC2"/>
			<stop  offset="0.7582" style="stop-color:#008FD7"/>
			<stop  offset="0.8822" style="stop-color:#009BE4"/>
			<stop  offset="1" style="stop-color:#009FE8"/>
		</linearGradient>
		<path class="st4" d="M42.2,19.6c0.5-0.3,0.5-1,0-1.3l-6.8-3.8c-2.5-1.4-5.5-1.4-8,0l-6.9,3.7c-0.6,0.3-0.6,1.2,0,1.6l0.8,0.5
			c0.9,0.5,2,0.5,2.8,0l3.2-1.7c2.6-1.4,5.5-1.4,8.1,0l3.2,1.8c0.7,0.4,1.6,0.4,2.4,0L42.2,19.6z"/>
	</g>
</g>
</svg>
