<svg xmlns="http://www.w3.org/2000/svg" width="1672" height="941" viewBox="0 0 1672 941" role="img" aria-label="新一代水务运营平台透明底矢量图">
<defs>
  <linearGradient id="titleGrad" x1="0" x2="1" y1="0" y2="1">
    <stop offset="0" stop-color="#f7fdff"/><stop offset=".45" stop-color="#bdeaff"/><stop offset="1" stop-color="#7cb8ff"/>
  </linearGradient>
  <linearGradient id="cardFill" x1="0" x2="1" y1="0" y2="1">
    <stop offset="0" stop-color="#07101c" stop-opacity=".98"/><stop offset=".55" stop-color="#061928" stop-opacity=".82"/><stop offset="1" stop-color="#031020" stop-opacity=".96"/>
  </linearGradient>
  <linearGradient id="tierFill" x1="0" x2="1" y1="0" y2="1">
    <stop offset="0" stop-color="#08286f" stop-opacity=".58"/><stop offset=".5" stop-color="#062a61" stop-opacity=".82"/><stop offset="1" stop-color="#06102b" stop-opacity=".52"/>
  </linearGradient>
  <radialGradient id="centerGlow" cx="50%" cy="50%" r="65%"><stop offset="0" stop-color="#0bdcff" stop-opacity=".35"/><stop offset=".48" stop-color="#073b80" stop-opacity=".35"/><stop offset="1" stop-color="#020814" stop-opacity="0"/></radialGradient>
  <radialGradient id="purpleCore" cx="40%" cy="35%" r="70%"><stop offset="0" stop-color="#dbb5ff"/><stop offset=".45" stop-color="#833aff"/><stop offset="1" stop-color="#1b0660"/></radialGradient>
  <linearGradient id="robotFill" x1="0" x2="1"><stop offset="0" stop-color="#e1fbff"/><stop offset=".45" stop-color="#56a6ff"/><stop offset="1" stop-color="#071d54"/></linearGradient>
  <filter id="softBlue" x="-60%" y="-60%" width="220%" height="220%"><feGaussianBlur stdDeviation="3" result="b"/><feColorMatrix in="b" type="matrix" values="0 0 0 0 0 0 0 0 0 0.62 0 0 0 0 1 0 0 0 .85 0"/><feMerge><feMergeNode/><feMergeNode in="SourceGraphic"/></feMerge></filter>
  <filter id="softPurple" x="-70%" y="-70%" width="240%" height="240%"><feGaussianBlur stdDeviation="4" result="b"/><feColorMatrix in="b" type="matrix" values="0 0 0 0 .46 0 0 0 0 .12 0 0 0 0 1 0 0 0 .9 0"/><feMerge><feMergeNode/><feMergeNode in="SourceGraphic"/></feMerge></filter>
  <filter id="tierGlow" x="-50%" y="-50%" width="200%" height="200%"><feGaussianBlur stdDeviation="6" result="b"/><feColorMatrix in="b" type="matrix" values="0 0 0 0 0 0 0 0 0 .43 0 0 0 0 1 0 0 0 .72 0"/><feMerge><feMergeNode/><feMergeNode in="SourceGraphic"/></feMerge></filter>
  <filter id="softText" x="-30%" y="-30%" width="160%" height="160%"><feDropShadow dx="0" dy="0" stdDeviation="3" flood-color="#6cd9ff" flood-opacity=".85"/></filter>
  <filter id="whiteGlow" x="-30%" y="-30%" width="160%" height="160%"><feDropShadow dx="0" dy="0" stdDeviation="4" flood-color="#b8f1ff" flood-opacity=".75"/></filter>
  <style>
    .strokeIcon { stroke-linecap: round; stroke-linejoin: round; }
  </style>
</defs>
<g opacity=".62">
  <ellipse cx="836" cy="744" rx="570" ry="58" fill="#012a4d" fill-opacity=".28" filter="url(#softBlue)"/>
  <ellipse cx="836" cy="485" rx="520" ry="360" fill="url(#centerGlow)"/>
</g>
<text x="836" y="94" text-anchor="middle" font-family="Noto Sans CJK SC, Microsoft YaHei, PingFang SC, Source Han Sans SC, Arial, sans-serif" font-size="70" font-weight="700" letter-spacing="8" fill="url(#titleGrad)" opacity="1" filter="url(#whiteGlow)">新一代水务运营平台</text><line x1="492" y1="144" x2="535" y2="144" stroke="#04eaff" stroke-width="2" opacity="0.9" /><line x1="1137" y1="144" x2="1180" y2="144" stroke="#04eaff" stroke-width="2" opacity="0.9" /><line x1="502" y1="133" x2="512" y2="144" stroke="#04eaff" stroke-width="2" opacity="0.9" /><line x1="1140" y1="133" x2="1130" y2="144" stroke="#04eaff" stroke-width="2" opacity="0.9" /><line x1="512" y1="133" x2="522" y2="144" stroke="#04eaff" stroke-width="2" opacity="0.9" /><line x1="1150" y1="133" x2="1140" y2="144" stroke="#04eaff" stroke-width="2" opacity="0.9" /><line x1="522" y1="133" x2="532" y2="144" stroke="#04eaff" stroke-width="2" opacity="0.9" /><line x1="1160" y1="133" x2="1150" y2="144" stroke="#04eaff" stroke-width="2" opacity="0.9" /><line x1="532" y1="133" x2="542" y2="144" stroke="#04eaff" stroke-width="2" opacity="0.9" /><line x1="1170" y1="133" x2="1160" y2="144" stroke="#04eaff" stroke-width="2" opacity="0.9" /><text x="836" y="150" text-anchor="middle" font-family="Noto Sans CJK SC, Microsoft YaHei, PingFang SC, Source Han Sans SC, Arial, sans-serif" font-size="24" font-weight="400" letter-spacing="4" fill="#d7e7f2" opacity="1" >六大能力中心为核心 · 支撑多业态组合运营与AI智能决策</text><g filter="url(#softBlue)" opacity=".95">
  <path d="M270 728 C335 670 511 652 653 694 C745 720 877 715 980 691 C1125 657 1328 666 1392 728 C1343 770 1170 787 1008 781 C876 776 768 792 637 781 C468 767 323 769 270 728 Z" fill="#082112" fill-opacity=".82" stroke="#1ea4ff" stroke-opacity=".65"/>
  <ellipse cx="410" cy="718" rx="52" ry="16" fill="#10302f" stroke="#4af6ff" stroke-opacity=".55"/>
  <ellipse cx="505" cy="708" rx="49" ry="14" fill="#10302f" stroke="#4af6ff" stroke-opacity=".55"/>
  <ellipse cx="609" cy="722" rx="55" ry="17" fill="#10302f" stroke="#4af6ff" stroke-opacity=".55"/>
  <ellipse cx="703" cy="708" rx="46" ry="14" fill="#10302f" stroke="#4af6ff" stroke-opacity=".55"/>
  <g fill="#0b3764" stroke="#5edfff" stroke-opacity=".45">
    <rect x="1052" y="689" width="70" height="40" rx="4"/>
    <rect x="1138" y="702" width="76" height="50" rx="4"/>
    <rect x="1230" y="674" width="55" height="36" rx="4"/>
  </g>
  <g stroke="#30d8ff" stroke-opacity=".45" stroke-width="2">
    <line x1="1059" y1="703" x2="1116" y2="703"/><line x1="1150" y1="717" x2="1206" y2="717"/><line x1="1240" y1="688" x2="1278" y2="688"/>
  </g>
</g>
<g filter="url(#tierGlow)">
      <path d="M 580.0,638.0 Q 556.0,638.0 556.0,662.0 L 511.0,682.0 Q 511.0,706.0 535.0,706.0 L 1137.0,706.0 Q 1161.0,706.0 1161.0,682.0 L 1116.0,662.0 Q 1116.0,638.0 1092.0,638.0 Z" fill="url(#tierFill)" stroke="#09c7ff" stroke-width="1.6" stroke-opacity=".88"/>
      <ellipse cx="836" cy="642.0" rx="280.0" ry="12.24" fill="#071f4d" fill-opacity=".45" stroke="#09c7ff" stroke-opacity=".75"/>
      <text x="761" y="682" text-anchor="middle" font-family="Noto Sans CJK SC, Microsoft YaHei, PingFang SC, Source Han Sans SC, Arial, sans-serif" font-size="34" font-weight="700" fill="#f1f7ff" filter="url(#softText)">1</text>
      <text x="856" y="680" text-anchor="middle" font-family="Noto Sans CJK SC, Microsoft YaHei, PingFang SC, Source Han Sans SC, Arial, sans-serif" font-size="28" font-weight="500" letter-spacing="5" fill="#f5fbff" opacity="1" >基础设施层</text>
    </g><g filter="url(#tierGlow)">
      <path d="M 520.0,570.0 Q 496.0,570.0 496.0,594.0 L 456.0,626.0 Q 456.0,650.0 480.0,650.0 L 1192.0,650.0 Q 1216.0,650.0 1216.0,626.0 L 1176.0,594.0 Q 1176.0,570.0 1152.0,570.0 Z" fill="url(#tierFill)" stroke="#09c7ff" stroke-width="1.6" stroke-opacity=".88"/>
      <ellipse cx="836" cy="574.0" rx="340.0" ry="14.399999999999999" fill="#071f4d" fill-opacity=".45" stroke="#09c7ff" stroke-opacity=".75"/>
      <text x="761" y="620" text-anchor="middle" font-family="Noto Sans CJK SC, Microsoft YaHei, PingFang SC, Source Han Sans SC, Arial, sans-serif" font-size="34" font-weight="700" fill="#f1f7ff" filter="url(#softText)">2</text>
      <text x="856" y="618" text-anchor="middle" font-family="Noto Sans CJK SC, Microsoft YaHei, PingFang SC, Source Han Sans SC, Arial, sans-serif" font-size="28" font-weight="500" letter-spacing="5" fill="#f5fbff" opacity="1" >数据底层</text>
    </g><g filter="url(#tierGlow)">
  <path d="M 550 410 Q 550 384 576 384 L 1096 384 Q 1122 384 1122 410 L 1167 548 Q 1175 574 1148 574 L 524 574 Q 497 574 505 548 Z" fill="url(#tierFill)" stroke="#03bcff" stroke-width="1.6" stroke-opacity=".86"/>
  <ellipse cx="836" cy="415" rx="300" ry="40" fill="#071f4d" fill-opacity=".45" stroke="#03bcff" stroke-opacity=".7"/>
</g>
<text x="760" y="395" text-anchor="middle" font-family="Noto Sans CJK SC, Microsoft YaHei, PingFang SC, Source Han Sans SC, Arial, sans-serif" font-size="34" font-weight="700" letter-spacing="0" fill="#f1f7ff" opacity="1" filter="url(#softText)">3</text><text x="860" y="395" text-anchor="middle" font-family="Noto Sans CJK SC, Microsoft YaHei, PingFang SC, Source Han Sans SC, Arial, sans-serif" font-size="28" font-weight="500" letter-spacing="5" fill="#f5fbff" opacity="1" >平台能力层</text><g fill="none" stroke="#04e6ff" stroke-width="1.8" stroke-linejoin="round" filter="url(#softBlue)">
      <path d="M 690,411.24 L 701.76,417.96 L 690,424.68 L 678.24,417.96 Z" fill="#04e6ff" fill-opacity=".14"/>
      <path d="M 678.24,417.96 L 678.24,429.72 L 690,436.44 L 690,424.68"/>
      <path d="M 701.76,417.96 L 701.76,429.72 L 690,436.44"/>
    </g><path d="M 734 427 C 736 413 750 409 757 418 C 763 405 783 411 782 426 H 734 Z" fill="none" stroke="#04e6ff" stroke-width="2" filter="url(#softBlue)"/><rect x="802" y="410" width="36" height="22" rx="2" fill="#06223b" stroke="#04e6ff"/><text x="820" y="427" text-anchor="middle" font-family="monospace" font-size="15" fill="#04e6ff">&lt;/&gt;</text><g stroke="#04e6ff" fill="none" stroke-width="2" stroke-linecap="round" stroke-linejoin="round" filter="url(#softPurple)">
      <path d="M 870.6,432.2 L 870.6,413.0 M 870.6,432.2 L 899.4,432.2"/>
      <polyline points="873.8,424.2 881.8,419.4 887.56,421.04 896.2,413.0"/>
    </g><g fill="none" stroke="#04e6ff" stroke-width="2" filter="url(#softBlue)">
      <path d="M 945,405.64 L 958.44,412.04 L 955.88,424.2 C 953.0,432.2 946.6,437.64 945,439.56 C 943.4,437.64 937.0,432.2 934.12,424.2 L 931.56,412.04 Z" fill="#04e6ff" fill-opacity=".12"/>
    </g><g filter="url(#softBlue)">
  <ellipse cx="836" cy="511" rx="285" ry="92" fill="#041528" fill-opacity=".58" stroke="#0aaeff" stroke-opacity=".55"/>
  <circle cx="836" cy="511" r="65" fill="#03132a" stroke="#00ccff" stroke-width="2.1"/>
  <circle cx="836" cy="511" r="83" fill="none" stroke="#226fff" stroke-opacity=".3"/>
</g>
<text x="836" y="493" text-anchor="middle" font-family="Noto Sans CJK SC, Microsoft YaHei, PingFang SC, Source Han Sans SC, Arial, sans-serif" font-size="29" font-weight="700" letter-spacing="0" fill="#f7fcff" opacity="1" >六大</text><text x="836" y="528" text-anchor="middle" font-family="Noto Sans CJK SC, Microsoft YaHei, PingFang SC, Source Han Sans SC, Arial, sans-serif" font-size="25" font-weight="700" letter-spacing="0" fill="#f7fcff" opacity="1" >能力中心</text><circle cx="600" cy="481" r="22" fill="#0d4cb8" fill-opacity=".54" stroke="#3fc9ff" stroke-opacity=".66" filter="url(#softBlue)"/><text x="600" y="488" text-anchor="middle" font-family="Arial" font-size="15" font-weight="700" fill="#f4fcff">AI</text><text x="650" y="487" text-anchor="start" font-family="Noto Sans CJK SC, Microsoft YaHei, PingFang SC, Source Han Sans SC, Arial, sans-serif" font-size="18" font-weight="400" letter-spacing="0" fill="#e9f6ff" opacity="1" >AI知识中心</text><circle cx="631" cy="535" r="22" fill="#0d4cb8" fill-opacity=".54" stroke="#3fc9ff" stroke-opacity=".66" filter="url(#softBlue)"/><path d="M 631,525 a9,9 0 1,0 .1,0 M 619,547 q12,-16 24,0" stroke="#e9fbff" stroke-width="2" fill="none"/><text x="681" y="541" text-anchor="start" font-family="Noto Sans CJK SC, Microsoft YaHei, PingFang SC, Source Han Sans SC, Arial, sans-serif" font-size="18" font-weight="400" letter-spacing="0" fill="#e9f6ff" opacity="1" >组织运营中心</text><circle cx="667" cy="582" r="22" fill="#0d4cb8" fill-opacity=".54" stroke="#3fc9ff" stroke-opacity=".66" filter="url(#softBlue)"/><path d="M 654,575 H 680 V 594 H 654 Z M 659,580 L 666,587 L 675,577" stroke="#e9fbff" stroke-width="2" fill="none"/><text x="717" y="588" text-anchor="start" font-family="Noto Sans CJK SC, Microsoft YaHei, PingFang SC, Source Han Sans SC, Arial, sans-serif" font-size="18" font-weight="400" letter-spacing="0" fill="#e9f6ff" opacity="1" >业务闭环中心</text><circle cx="958" cy="481" r="22" fill="#0d4cb8" fill-opacity=".54" stroke="#3fc9ff" stroke-opacity=".66" filter="url(#softBlue)"/><g fill="none" stroke="#e9fbff" stroke-width="1.8" stroke-linejoin="round" filter="url(#softBlue)">
      <path d="M 958,467.56 L 971.44,475.24 L 958,482.92 L 944.56,475.24 Z" fill="#e9fbff" fill-opacity=".14"/>
      <path d="M 944.56,475.24 L 944.56,488.68 L 958,496.36 L 958,482.92"/>
      <path d="M 971.44,475.24 L 971.44,488.68 L 958,496.36"/>
    </g><text x="1008" y="487" text-anchor="start" font-family="Noto Sans CJK SC, Microsoft YaHei, PingFang SC, Source Han Sans SC, Arial, sans-serif" font-size="18" font-weight="400" letter-spacing="0" fill="#e9f6ff" opacity="1" >数据智能中心</text><circle cx="968" cy="535" r="22" fill="#0d4cb8" fill-opacity=".54" stroke="#3fc9ff" stroke-opacity=".66" filter="url(#softBlue)"/><g fill="none" stroke="#e9fbff" stroke-width="1.8" stroke-linejoin="round" filter="url(#softBlue)">
      <path d="M 968,523.24 L 979.76,529.96 L 968,536.68 L 956.24,529.96 Z" fill="#e9fbff" fill-opacity=".14"/>
      <path d="M 956.24,529.96 L 956.24,541.72 L 968,548.44 L 968,536.68"/>
      <path d="M 979.76,529.96 L 979.76,541.72 L 968,548.44"/>
    </g><text x="1018" y="541" text-anchor="start" font-family="Noto Sans CJK SC, Microsoft YaHei, PingFang SC, Source Han Sans SC, Arial, sans-serif" font-size="18" font-weight="400" letter-spacing="0" fill="#e9f6ff" opacity="1" >感知空间中心</text><circle cx="914" cy="582" r="22" fill="#0d4cb8" fill-opacity=".54" stroke="#3fc9ff" stroke-opacity=".66" filter="url(#softBlue)"/><rect x="902" y="570" width="24" height="24" rx="4" stroke="#e9fbff" fill="none"/><text x="914" y="587" text-anchor="middle" font-family="Arial" font-size="12" fill="#e9fbff">AI</text><text x="964" y="588" text-anchor="start" font-family="Noto Sans CJK SC, Microsoft YaHei, PingFang SC, Source Han Sans SC, Arial, sans-serif" font-size="18" font-weight="400" letter-spacing="0" fill="#e9f6ff" opacity="1" >联动调度中心</text><g filter="url(#tierGlow)">
      <path d="M 600.0,302.0 Q 576.0,302.0 576.0,326.0 L 553.5,360.0 Q 553.5,384.0 577.5,384.0 L 1094.5,384.0 Q 1118.5,384.0 1118.5,360.0 L 1096.0,326.0 Q 1096.0,302.0 1072.0,302.0 Z" fill="url(#tierFill)" stroke="#168aff" stroke-width="1.6" stroke-opacity=".88"/>
      <ellipse cx="836" cy="306.0" rx="260.0" ry="14.76" fill="#071f4d" fill-opacity=".45" stroke="#168aff" stroke-opacity=".75"/>
      <text x="761" y="335" text-anchor="middle" font-family="Noto Sans CJK SC, Microsoft YaHei, PingFang SC, Source Han Sans SC, Arial, sans-serif" font-size="34" font-weight="700" fill="#f1f7ff" filter="url(#softText)">4</text>
      <text x="856" y="333" text-anchor="middle" font-family="Noto Sans CJK SC, Microsoft YaHei, PingFang SC, Source Han Sans SC, Arial, sans-serif" font-size="28" font-weight="500" letter-spacing="5" fill="#f5fbff" opacity="1" >AI智能体层</text>
    </g><g filter="url(#softBlue)">
      <rect x="688.0" y="357.0" width="38.0" height="21.0" rx="8.0" fill="url(#robotFill)" stroke="#8ddfff" stroke-width="1.6"/>
      <circle cx="699.0" cy="366.0" r="2.75" fill="#ccf7ff"/>
      <circle cx="715.0" cy="366.0" r="2.75" fill="#ccf7ff"/>
      <path d="M 701.0,373.5 Q 707,377.5 713.0,373.5" stroke="#8df0ff" fill="none" stroke-width="1.5"/>
      <line x1="707" y1="357.0" x2="707" y2="348.5" stroke="#8df0ff" stroke-width="1.5"/>
      <circle cx="707" cy="346.0" r="2.5" fill="#8df0ff"/>
      <rect x="678.0" y="378.5" width="57.99999999999999" height="4.0" rx="2.0" fill="#4edcff" fill-opacity=".38"/>
    </g><g filter="url(#softPurple)">
      <path d="M 950.56,368.24 C 940.3,360.68 947.32,346.64 960.28,347.72 C 965.14,335.3 981.88,335.84 984.04,349.88 C 1000.24,349.34 1001.32,369.86 989.44,373.64 C 987.82,385.52 971.08,386.06 967.84,376.88 C 960.28,384.44 947.32,380.12 950.56,368.24 Z" fill="url(#purpleCore)" stroke="#a46cff" stroke-width="1.7"/>
      <path d="M 960.28,358.52 C 967.3,364.98 960.28,365.1 970.03,365.18 M 970.17,352.58 C 970.03,361.76 970.19,365.02 970.08,365.18" stroke="#d8b9ff" stroke-width="1.4" fill="none" opacity=".9"/>
    </g><g filter="url(#tierGlow)">
      <path d="M 670.0,204.0 Q 646.0,204.0 646.0,228.0 L 621.0,262.0 Q 621.0,286.0 645.0,286.0 L 1027.0,286.0 Q 1051.0,286.0 1051.0,262.0 L 1026.0,228.0 Q 1026.0,204.0 1002.0,204.0 Z" fill="url(#tierFill)" stroke="#8a4dff" stroke-width="1.6" stroke-opacity=".88"/>
      <ellipse cx="836" cy="208.0" rx="190.0" ry="14.76" fill="#071f4d" fill-opacity=".45" stroke="#8a4dff" stroke-opacity=".75"/>
      <text x="761" y="231" text-anchor="middle" font-family="Noto Sans CJK SC, Microsoft YaHei, PingFang SC, Source Han Sans SC, Arial, sans-serif" font-size="34" font-weight="700" fill="#f1f7ff" filter="url(#softText)">5</text>
      <text x="856" y="229" text-anchor="middle" font-family="Noto Sans CJK SC, Microsoft YaHei, PingFang SC, Source Han Sans SC, Arial, sans-serif" font-size="28" font-weight="500" letter-spacing="5" fill="#f5fbff" opacity="1" >业务应用层</text>
    </g><g filter="url(#softBlue)" fill="#1d8cff" stroke="#8edcff" stroke-width="1.5">
      <circle cx="730" cy="265" r="8.4" fill="#1577e6" fill-opacity=".85"/>
      <circle cx="730" cy="265" r="3.5999999999999996" fill="#071523"/>
      <g transform="translate(730,265)">
        <rect x="-1.65" y="-14.1" width="3.3" height="5.1000000000000005" rx="2" transform="rotate(0)"/><rect x="-1.65" y="-14.1" width="3.3" height="5.1000000000000005" rx="2" transform="rotate(45)"/><rect x="-1.65" y="-14.1" width="3.3" height="5.1000000000000005" rx="2" transform="rotate(90)"/><rect x="-1.65" y="-14.1" width="3.3" height="5.1000000000000005" rx="2" transform="rotate(135)"/><rect x="-1.65" y="-14.1" width="3.3" height="5.1000000000000005" rx="2" transform="rotate(180)"/><rect x="-1.65" y="-14.1" width="3.3" height="5.1000000000000005" rx="2" transform="rotate(225)"/><rect x="-1.65" y="-14.1" width="3.3" height="5.1000000000000005" rx="2" transform="rotate(270)"/><rect x="-1.65" y="-14.1" width="3.3" height="5.1000000000000005" rx="2" transform="rotate(315)"/>
      </g>
    </g><g filter="url(#softPurple)"><rect x="790" y="250" width="24" height="29" rx="3" fill="#6732d9" stroke="#d0aeff"/><path d="M796 260h12M796 270h12" stroke="#e6dbff" stroke-width="1.3"/></g><path d="M866 252 L866 278 L893 278 A26 26 0 0 0 866 252" fill="#803df4" filter="url(#softPurple)"/><g stroke="#a472ff" fill="none" stroke-width="2" stroke-linecap="round" stroke-linejoin="round" filter="url(#softPurple)">
      <path d="M 916.7,276.9 L 916.7,256.5 M 916.7,276.9 L 947.3,276.9"/>
      <polyline points="920.1,268.4 928.6,263.3 934.72,265.04 943.9,256.5"/>
    </g><text x="760" y="393" text-anchor="middle" font-family="Noto Sans CJK SC, Microsoft YaHei, PingFang SC, Source Han Sans SC, Arial, sans-serif" font-size="34" font-weight="700" letter-spacing="0" fill="#f1f7ff" opacity="1" filter="url(#softText)">3</text><text x="860" y="393" text-anchor="middle" font-family="Noto Sans CJK SC, Microsoft YaHei, PingFang SC, Source Han Sans SC, Arial, sans-serif" font-size="28" font-weight="500" letter-spacing="5" fill="#f5fbff" opacity="1" >平台能力层</text><path d="M 183,166 L 417,166 L 435,184 L 435,393 L 417,411 L 183,411 L 165,393 L 165,184 Z" fill="url(#cardFill)" fill-opacity="0.88" stroke="#6c51ff" stroke-opacity=".72" stroke-width="1.2" filter="url(#softBlue)"/><text x="300" y="205" text-anchor="middle" font-family="Noto Sans CJK SC, Microsoft YaHei, PingFang SC, Source Han Sans SC, Arial, sans-serif" font-size="28" font-weight="700" letter-spacing="0" fill="#f5faff" opacity="1" >CW-Agent</text><text x="300" y="232" text-anchor="middle" font-family="Noto Sans CJK SC, Microsoft YaHei, PingFang SC, Source Han Sans SC, Arial, sans-serif" font-size="20" font-weight="500" letter-spacing="0" fill="#78f5ff" opacity="1" >水务智能体</text><g filter="url(#softBlue)">
      <rect x="229.4" y="283.8" width="53.2" height="29.4" rx="11.200000000000001" fill="url(#robotFill)" stroke="#8ddfff" stroke-width="1.6"/>
      <circle cx="244.8" cy="296.4" r="3.85" fill="#ccf7ff"/>
      <circle cx="267.2" cy="296.4" r="3.85" fill="#ccf7ff"/>
      <path d="M 247.6,306.9 Q 256,312.5 264.4,306.9" stroke="#8df0ff" fill="none" stroke-width="1.5"/>
      <line x1="256" y1="283.8" x2="256" y2="271.9" stroke="#8df0ff" stroke-width="1.5"/>
      <circle cx="256" cy="268.4" r="3.5" fill="#8df0ff"/>
      <rect x="215.4" y="313.9" width="81.19999999999999" height="5.6000000000000005" rx="2.8000000000000003" fill="#4edcff" fill-opacity=".38"/>
    </g><g filter="url(#softPurple)">
      <path d="M 320.0,300.5 C 305.75,290.0 315.5,270.5 333.5,272.0 C 340.25,254.75 363.5,255.5 366.5,275.0 C 389.0,274.25 390.5,302.75 374.0,308.0 C 371.75,324.5 348.5,325.25 344.0,312.5 C 333.5,323.0 315.5,317.0 320.0,300.5 Z" fill="url(#purpleCore)" stroke="#a46cff" stroke-width="1.7"/>
      <path d="M 333.5,287.0 C 343.25,295.98 333.5,296.1 347.03,296.18 M 347.17,278.75 C 347.03,291.5 347.19,296.02 347.08,296.18" stroke="#d8b9ff" stroke-width="1.4" fill="none" opacity=".9"/>
    </g><g><rect x="182" y="356" width="112" height="42" rx="6" fill="#071523" fill-opacity=".83" stroke="#1ca7ff" stroke-opacity=".55"/><g stroke="#b184ff" fill="none" stroke-width="2" stroke-linecap="round" stroke-linejoin="round" filter="url(#softPurple)">
      <path d="M 189.9,383.3 L 189.9,372.5 M 189.9,383.3 L 206.1,383.3"/>
      <polyline points="191.7,378.8 196.2,376.1 199.44,377.04 204.3,372.5"/>
    </g><text x="224" y="383.0" text-anchor="start" font-family="Noto Sans CJK SC, Microsoft YaHei, PingFang SC, Source Han Sans SC, Arial, sans-serif" font-size="18" font-weight="400" letter-spacing="0" fill="#ecf7ff" opacity="1" >决策增强</text></g><g><rect x="306" y="356" width="112" height="42" rx="6" fill="#071523" fill-opacity=".83" stroke="#1ca7ff" stroke-opacity=".55"/><rect x="313" y="367.0" width="18" height="20" rx="2" fill="#a472ff" fill-opacity=".6" stroke="#d7c1ff"/><text x="348" y="383.0" text-anchor="start" font-family="Noto Sans CJK SC, Microsoft YaHei, PingFang SC, Source Han Sans SC, Arial, sans-serif" font-size="18" font-weight="400" letter-spacing="0" fill="#ecf7ff" opacity="1" >知识进化</text></g><path d="M 183,433 L 417,433 L 435,451 L 435,635 L 417,653 L 183,653 L 165,635 L 165,451 Z" fill="url(#cardFill)" fill-opacity="0.88" stroke="#00a8ff" stroke-opacity=".72" stroke-width="1.2" filter="url(#softBlue)"/><text x="300" y="473" text-anchor="middle" font-family="Noto Sans CJK SC, Microsoft YaHei, PingFang SC, Source Han Sans SC, Arial, sans-serif" font-size="28" font-weight="700" letter-spacing="4" fill="#f5faff" opacity="1" >CW-POM</text><text x="300" y="501" text-anchor="middle" font-family="Noto Sans CJK SC, Microsoft YaHei, PingFang SC, Source Han Sans SC, Arial, sans-serif" font-size="20" font-weight="500" letter-spacing="0" fill="#78f5ff" opacity="1" >水厂智慧运营系统</text><text x="300" y="533" text-anchor="middle" font-family="Noto Sans CJK SC, Microsoft YaHei, PingFang SC, Source Han Sans SC, Arial, sans-serif" font-size="16" font-weight="400" letter-spacing="0" fill="#eaf7ff" opacity="1" >生产监控 · 全面闭环</text><g filter="url(#softBlue)" fill="#1d8cff" stroke="#8edcff" stroke-width="1.5">
      <circle cx="255" cy="574" r="16.8" fill="#1577e6" fill-opacity=".85"/>
      <circle cx="255" cy="574" r="7.199999999999999" fill="#071523"/>
      <g transform="translate(255,574)">
        <rect x="-3.3" y="-28.2" width="6.6" height="10.200000000000001" rx="2" transform="rotate(0)"/><rect x="-3.3" y="-28.2" width="6.6" height="10.200000000000001" rx="2" transform="rotate(45)"/><rect x="-3.3" y="-28.2" width="6.6" height="10.200000000000001" rx="2" transform="rotate(90)"/><rect x="-3.3" y="-28.2" width="6.6" height="10.200000000000001" rx="2" transform="rotate(135)"/><rect x="-3.3" y="-28.2" width="6.6" height="10.200000000000001" rx="2" transform="rotate(180)"/><rect x="-3.3" y="-28.2" width="6.6" height="10.200000000000001" rx="2" transform="rotate(225)"/><rect x="-3.3" y="-28.2" width="6.6" height="10.200000000000001" rx="2" transform="rotate(270)"/><rect x="-3.3" y="-28.2" width="6.6" height="10.200000000000001" rx="2" transform="rotate(315)"/>
      </g>
    </g><g filter="url(#softBlue)">
      <rect x="326.4" y="553.6" width="31.200000000000003" height="40.800000000000004" rx="5" fill="#1b78d8" fill-opacity=".72" stroke="#9be8ff" stroke-width="1.6"/>
      <rect x="333.6" y="548.2" width="16.8" height="8.4" rx="3" fill="#72c8ff"/>
      <path d="M 333.6,566.8 H 351.0 M 333.6,574.04 H 349.2 M 333.6,586.0 H 351.0" stroke="#d8ffff" stroke-width="1.8" opacity=".8"/>
    </g><g><rect x="182" y="613" width="112" height="42" rx="6" fill="#071523" fill-opacity=".83" stroke="#1ca7ff" stroke-opacity=".55"/><path d="M 188,641.0 H 209 V 626.0 H 188 Z M 191,637.0 l5,-5 4,3 7,-7" stroke="#81f0ff" fill="none" stroke-width="1.5"/><text x="224" y="640.0" text-anchor="start" font-family="Noto Sans CJK SC, Microsoft YaHei, PingFang SC, Source Han Sans SC, Arial, sans-serif" font-size="18" font-weight="400" letter-spacing="0" fill="#ecf7ff" opacity="1" >生产监控</text></g><g><rect x="306" y="613" width="112" height="42" rx="6" fill="#071523" fill-opacity=".83" stroke="#1ca7ff" stroke-opacity=".55"/><path d="M 322,624.0 A10 10 0 1 1 313,638.0 M 322,624.0 l-5,0 l2,-5" stroke="#81f0ff" fill="none" stroke-width="1.5"/><text x="348" y="640.0" text-anchor="start" font-family="Noto Sans CJK SC, Microsoft YaHei, PingFang SC, Source Han Sans SC, Arial, sans-serif" font-size="18" font-weight="400" letter-spacing="0" fill="#ecf7ff" opacity="1" >全面闭环</text></g><path d="M 1256,166 L 1490,166 L 1508,184 L 1508,393 L 1490,411 L 1256,411 L 1238,393 L 1238,184 Z" fill="url(#cardFill)" fill-opacity="0.88" stroke="#6c51ff" stroke-opacity=".72" stroke-width="1.2" filter="url(#softBlue)"/><text x="1373" y="205" text-anchor="middle" font-family="Noto Sans CJK SC, Microsoft YaHei, PingFang SC, Source Han Sans SC, Arial, sans-serif" font-size="28" font-weight="700" letter-spacing="0" fill="#f5faff" opacity="1" >CW-PPI</text><text x="1373" y="232" text-anchor="middle" font-family="Noto Sans CJK SC, Microsoft YaHei, PingFang SC, Source Han Sans SC, Arial, sans-serif" font-size="20" font-weight="500" letter-spacing="0" fill="#78f5ff" opacity="1" >厂网河湖一体化</text><text x="1373" y="260" text-anchor="middle" font-family="Noto Sans CJK SC, Microsoft YaHei, PingFang SC, Source Han Sans SC, Arial, sans-serif" font-size="16" font-weight="400" letter-spacing="0" fill="#eaf7ff" opacity="1" >数据融合 · 智能治理</text><g fill="none" stroke="#00aaff" stroke-width="1.8" stroke-linejoin="round" filter="url(#softBlue)">
      <path d="M 1373,280.88 L 1409.12,301.52 L 1373,322.16 L 1336.88,301.52 Z" fill="#00aaff" fill-opacity=".14"/>
      <path d="M 1336.88,301.52 L 1336.88,337.64 L 1373,358.28 L 1373,322.16"/>
      <path d="M 1409.12,301.52 L 1409.12,337.64 L 1373,358.28"/>
    </g><g><rect x="1255" y="356" width="112" height="42" rx="6" fill="#071523" fill-opacity=".83" stroke="#1ca7ff" stroke-opacity=".55"/><g stroke="#00dcff" fill="none" stroke-width="1.6"><ellipse cx="1271" cy="370.0" rx="9" ry="4"/><path d="M1262,370.0 v16 c0,2 18,2 18,0 v-16 M1262,378.0 c0,2 18,2 18,0"/></g><text x="1297" y="383.0" text-anchor="start" font-family="Noto Sans CJK SC, Microsoft YaHei, PingFang SC, Source Han Sans SC, Arial, sans-serif" font-size="18" font-weight="400" letter-spacing="0" fill="#ecf7ff" opacity="1" >数据赋能</text></g><g><rect x="1379" y="356" width="112" height="42" rx="6" fill="#071523" fill-opacity=".83" stroke="#1ca7ff" stroke-opacity=".55"/><path d="M 1385,377.0 H 1405 M 1395,367.0 V 387.0 M 1389,371.0 L 1385,367.0 M 1401,383.0 L 1405,387.0" stroke="#00dcff" fill="none" stroke-width="1.7"/><text x="1421" y="383.0" text-anchor="start" font-family="Noto Sans CJK SC, Microsoft YaHei, PingFang SC, Source Han Sans SC, Arial, sans-serif" font-size="18" font-weight="400" letter-spacing="0" fill="#ecf7ff" opacity="1" >智能治理</text></g><path d="M 1256,433 L 1490,433 L 1508,451 L 1508,635 L 1490,653 L 1256,653 L 1238,635 L 1238,451 Z" fill="url(#cardFill)" fill-opacity="0.88" stroke="#00a8ff" stroke-opacity=".72" stroke-width="1.2" filter="url(#softBlue)"/><text x="1373" y="473" text-anchor="middle" font-family="Noto Sans CJK SC, Microsoft YaHei, PingFang SC, Source Han Sans SC, Arial, sans-serif" font-size="28" font-weight="700" letter-spacing="0" fill="#f5faff" opacity="1" >CW-Visual</text><text x="1373" y="501" text-anchor="middle" font-family="Noto Sans CJK SC, Microsoft YaHei, PingFang SC, Source Han Sans SC, Arial, sans-serif" font-size="20" font-weight="500" letter-spacing="0" fill="#78f5ff" opacity="1" >三维数字孪生</text><text x="1373" y="533" text-anchor="middle" font-family="Noto Sans CJK SC, Microsoft YaHei, PingFang SC, Source Han Sans SC, Arial, sans-serif" font-size="16" font-weight="400" letter-spacing="0" fill="#eaf7ff" opacity="1" >全域可感知 · 数字孪生</text><g filter="url(#softBlue)">
      <path d="M 1289.4,573 C 1305.5,553.4 1340.5,553.4 1356.6,573 C 1340.5,592.6 1305.5,592.6 1289.4,573 Z" fill="#05243a" stroke="#00d8ff" stroke-width="2"/>
      <circle cx="1323" cy="573" r="11.9" fill="#00c2ff" fill-opacity=".7"/>
      <circle cx="1323" cy="573" r="4.9" fill="#d4fbff"/>
    </g><g filter="url(#softBlue)">
      <rect x="1391.8" y="558.6" width="50.4" height="30.8" rx="5" fill="#0677b8" stroke="#5eefff" stroke-width="1.7"/>
      <path d="M 1404.4,558.6 L 1410.7,548.8 H 1428.2 L 1434.5,558.6" fill="#06a6dc" stroke="#5eefff" stroke-width="1.2"/>
      <circle cx="1417" cy="574" r="11.200000000000001" fill="#031423" stroke="#a5faff" stroke-width="2"/>
      <circle cx="1417" cy="574" r="4.9" fill="#38deff"/>
    </g><g><rect x="1255" y="613" width="112" height="42" rx="6" fill="#071523" fill-opacity=".83" stroke="#1ca7ff" stroke-opacity=".55"/><path d="M1271,622.0 l11,6 v12 l-11,6 l-11,-6 v-12z M1271,628.0 v12 M1263,632.0 l8,4 l8,-4" stroke="#00dcff" fill="none" stroke-width="1.4"/><text x="1297" y="640.0" text-anchor="start" font-family="Noto Sans CJK SC, Microsoft YaHei, PingFang SC, Source Han Sans SC, Arial, sans-serif" font-size="18" font-weight="400" letter-spacing="0" fill="#ecf7ff" opacity="1" >全域可感</text></g><g><rect x="1379" y="613" width="112" height="42" rx="6" fill="#071523" fill-opacity=".83" stroke="#1ca7ff" stroke-opacity=".55"/><path d="M1395,622.0 l11,6 v12 l-11,6 l-11,-6 v-12z M1395,628.0 v12 M1387,632.0 l8,4 l8,-4" stroke="#00dcff" fill="none" stroke-width="1.4"/><text x="1421" y="640.0" text-anchor="start" font-family="Noto Sans CJK SC, Microsoft YaHei, PingFang SC, Source Han Sans SC, Arial, sans-serif" font-size="18" font-weight="400" letter-spacing="0" fill="#ecf7ff" opacity="1" >数字孪生</text></g><g filter="url(#softBlue)">
  <rect x="215" y="817" width="1242" height="86" rx="12" fill="#061320" fill-opacity=".82" stroke="#2cbfff" stroke-opacity=".65"/>
  <line x1="535" y1="836" x2="535" y2="884" stroke="#b7d8ff" stroke-opacity=".35"/>
  <line x1="840" y1="836" x2="840" y2="884" stroke="#b7d8ff" stroke-opacity=".35"/>
  <line x1="1150" y1="836" x2="1150" y2="884" stroke="#b7d8ff" stroke-opacity=".35"/>
</g>
<g fill="none" stroke="#e4f5ff" stroke-width="1.8" stroke-linejoin="round" filter="url(#softBlue)">
      <path d="M 310,837.32 L 332.68,850.28 L 310,863.24 L 287.32,850.28 Z" fill="#e4f5ff" fill-opacity=".14"/>
      <path d="M 287.32,850.28 L 287.32,872.96 L 310,885.92 L 310,863.24"/>
      <path d="M 332.68,850.28 L 332.68,872.96 L 310,885.92"/>
    </g><text x="410" y="868" text-anchor="middle" font-family="Noto Sans CJK SC, Microsoft YaHei, PingFang SC, Source Han Sans SC, Arial, sans-serif" font-size="28" font-weight="400" letter-spacing="0" fill="#f6fbff" opacity="1" >多业态融合</text><g stroke="#e4f5ff" fill="none" stroke-width="2" stroke-linecap="round" stroke-linejoin="round" filter="url(#softPurple)">
      <path d="M 614.8,879.6 L 614.8,846.0 M 614.8,879.6 L 665.2,879.6"/>
      <polyline points="620.4,865.6 634.4,857.2 644.48,860.04 659.6,846.0"/>
    </g><text x="735" y="868" text-anchor="middle" font-family="Noto Sans CJK SC, Microsoft YaHei, PingFang SC, Source Han Sans SC, Arial, sans-serif" font-size="28" font-weight="400" letter-spacing="0" fill="#f6fbff" opacity="1" >数据驱动</text><g filter="url(#softBlue)"><rect x="905" y="835" width="50" height="50" rx="5" fill="#0c1f35" stroke="#dceeff"/><text x="930" y="870" text-anchor="middle" font-family="Arial" font-size="24" font-weight="700" fill="#e9f7ff">AI</text></g><text x="1035" y="868" text-anchor="middle" font-family="Noto Sans CJK SC, Microsoft YaHei, PingFang SC, Source Han Sans SC, Arial, sans-serif" font-size="28" font-weight="400" letter-spacing="0" fill="#f6fbff" opacity="1" >AI赋能</text><g fill="none" stroke="#e4f5ff" stroke-width="2" filter="url(#softBlue)">
      <path d="M 1248,831.12 L 1271.52,842.32 L 1267.04,863.6 C 1262.0,877.6 1250.8,887.12 1248,890.48 C 1245.2,887.12 1234.0,877.6 1228.96,863.6 L 1224.48,842.32 Z" fill="#e4f5ff" fill-opacity=".12"/>
    </g><text x="1355" y="868" text-anchor="middle" font-family="Noto Sans CJK SC, Microsoft YaHei, PingFang SC, Source Han Sans SC, Arial, sans-serif" font-size="28" font-weight="400" letter-spacing="0" fill="#f6fbff" opacity="1" >安全可靠</text>
</svg>
